<mxfile host="app.diagrams.net" modified="2023-07-17T01:30:16.952Z" agent="Mozilla/5.0 (X11; Linux x86_64) AppleWebKit/537.36 (KHTML, like Gecko) Chrome/92.0.4515.159 Safari/537.36" version="21.6.2" etag="Tq4KDNolJW3iqsZdmWDl" type="github">
  <diagram name="第 1 页" id="hz99Pd7-ASICRnNBI1Cc">
    <mxGraphModel>
      <root>
        <mxCell id="0" />
        <mxCell id="1" parent="0" />
      </root>
    </mxGraphModel>
  </diagram>
</mxfile>
